<svg width="24" height="24" viewBox="0 0 24 24" fill="none" xmlns="http://www.w3.org/2000/svg">
<path fill-rule="evenodd" clip-rule="evenodd" d="M8.16129 4.8768C8.16129 3.28799 9.41188 2 10.9546 2H13.0454C14.5881 2 15.8387 3.28798 15.8387 4.8768V8.20155H16.2067C17.7494 8.20155 19 9.48954 19 11.0783V18.0896C19 19.6784 17.7494 20.9664 16.2067 20.9664H15.8387V21.3023C15.8387 21.6876 15.5354 22 15.1613 22C14.7872 22 14.4839 21.6876 14.4839 21.3023V20.9664H9.51613V21.3023C9.51613 21.6876 9.21284 22 8.83871 22C8.46458 22 8.16129 21.6876 8.16129 21.3023V20.9664H7.79328C6.25059 20.9664 5 19.6784 5 18.0896V11.0783C5 9.48954 6.25059 8.20155 7.79328 8.20155H8.16129V4.8768ZM9.51613 8.20155H14.4839V4.8768C14.4839 4.05861 13.8399 3.39535 13.0454 3.39535H10.9546C10.1601 3.39535 9.51613 4.05862 9.51613 4.8768V8.20155ZM7.79328 9.5969C6.99885 9.5969 6.35484 10.2602 6.35484 11.0783V18.0896C6.35484 18.9078 6.99885 19.5711 7.79328 19.5711H16.2067C17.0012 19.5711 17.6452 18.9078 17.6452 18.0896V11.0783C17.6452 10.2602 17.0011 9.5969 16.2067 9.5969H7.79328ZM8.83871 11.3023C9.21284 11.3023 9.51613 11.6147 9.51613 12V17.168C9.51613 17.5533 9.21284 17.8656 8.83871 17.8656C8.46458 17.8656 8.16129 17.5533 8.16129 17.168V12C8.16129 11.6147 8.46458 11.3023 8.83871 11.3023ZM12 11.3023C12.3741 11.3023 12.6774 11.6147 12.6774 12V17.168C12.6774 17.5533 12.3741 17.8656 12 17.8656C11.6259 17.8656 11.3226 17.5533 11.3226 17.168V12C11.3226 11.6147 11.6259 11.3023 12 11.3023ZM15.1613 11.3023C15.5354 11.3023 15.8387 11.6147 15.8387 12V17.168C15.8387 17.5533 15.5354 17.8656 15.1613 17.8656C14.7872 17.8656 14.4839 17.5533 14.4839 17.168V12C14.4839 11.6147 14.7872 11.3023 15.1613 11.3023Z" fill="black"/>
</svg>
