<svg width="24" height="24" viewBox="0 0 24 24" fill="none" xmlns="http://www.w3.org/2000/svg">
<path fill-rule="evenodd" clip-rule="evenodd" d="M13.1318 6.20391C13.3947 5.93887 13.8288 5.9312 14.1014 6.18677L19.7903 11.5201C19.9243 11.6458 20 11.819 20 12C20 12.181 19.9243 12.3542 19.7903 12.4799L14.1014 17.8132C13.8288 18.0688 13.3947 18.0611 13.1318 17.7961C12.8689 17.531 12.8768 17.109 13.1494 16.8534L17.6153 12.6667H4.68571C4.307 12.6667 4 12.3682 4 12C4 11.6318 4.307 11.3333 4.68571 11.3333H17.6153L13.1494 7.14656C12.8768 6.89099 12.8689 6.46895 13.1318 6.20391Z" fill="black"/>
</svg>
