<svg width="24" height="24" viewBox="0 0 24 24" fill="none" xmlns="http://www.w3.org/2000/svg">
<path fill-rule="evenodd" clip-rule="evenodd" d="M10.8682 6.20391C11.1311 6.46895 11.1232 6.89099 10.8506 7.14656L6.38469 11.3333H19.3143C19.693 11.3333 20 11.6318 20 12C20 12.3682 19.693 12.6667 19.3143 12.6667H6.38469L10.8506 16.8534C11.1232 17.109 11.1311 17.531 10.8682 17.7961C10.6053 18.0611 10.1712 18.0688 9.89862 17.8132L4.20974 12.4799C4.07571 12.3542 4 12.181 4 12C4 11.819 4.07571 11.6458 4.20974 11.5201L9.89862 6.18677C10.1712 5.9312 10.6053 5.93887 10.8682 6.20391Z" fill="black"/>
</svg>
