<svg width="67" height="67" viewBox="0 0 67 67" fill="none" xmlns="http://www.w3.org/2000/svg">
<g clip-path="url(#clip0_4282_6223)">
<path d="M31.2587 0.804181C31.1179 0.842587 30.5418 0.957803 29.9785 1.06022C23.3088 2.3404 17.7784 8.11404 16.6646 14.9374C16.4214 16.4736 16.4214 19.0084 16.6646 20.5318C17.8296 27.7137 23.5264 33.3849 30.8106 34.5883C32.2317 34.8315 34.792 34.8315 36.277 34.5883C43.1516 33.4745 48.746 28.1105 50.2311 21.2103C50.5639 19.6741 50.5639 15.8336 50.2311 14.2973C48.7972 7.67877 43.7021 2.53243 37.0836 1.04742C36.149 0.829785 31.8732 0.663361 31.2587 0.804181Z" fill="#95969D"/>
<path d="M19.4178 36.1756C15.2444 37.0589 11.7111 38.9408 8.79231 41.8212C6.85923 43.7287 4.79814 46.6987 4.23485 48.3757C3.96602 49.1951 4.09403 49.5663 5.28461 51.3202C9.73965 57.9131 16.5374 62.8802 23.9625 64.9797C29.2753 66.4648 34.9977 66.6952 40.2337 65.6326C45.4568 64.5701 50.616 62.1377 54.6997 58.8477C57.2473 56.7994 60.5374 53.0868 62.2144 50.3856C63.085 48.9646 63.085 48.9006 62.2528 47.262C59.3212 41.5012 53.5476 37.2381 47.1595 36.1116C45.5464 35.8299 44.9959 35.9452 43.5749 36.8797C40.4129 38.9536 37.1996 39.9265 33.4999 39.9265C29.7105 39.9265 26.6637 38.9792 23.1432 36.7005C22.183 36.0732 22.0038 36.0092 21.2869 35.9836C20.8645 35.958 20.0195 36.0476 19.4178 36.1756Z" fill="#95969D"/>
</g>
<defs>
<clipPath id="clip0_4282_6223">
<rect width="65.5455" height="65.5455" fill="white" transform="translate(0.727295 0.727264)"/>
</clipPath>
</defs>
</svg>
