<svg width="24" height="24" viewBox="0 0 24 24" fill="none" xmlns="http://www.w3.org/2000/svg">
<path fill-rule="evenodd" clip-rule="evenodd" d="M2 6.83204C2 4.16338 4.16338 2 6.83204 2H17.168C19.8366 2 22 4.16338 22 6.83204V17.168C22 19.8366 19.8366 22 17.168 22H6.83204C4.16338 22 2 19.8366 2 17.168V6.83204ZM6.83204 3.39535C4.93401 3.39535 3.39535 4.93401 3.39535 6.83204V17.168C3.39535 19.066 4.93401 20.6047 6.83204 20.6047H17.168C19.066 20.6047 20.6047 19.066 20.6047 17.168V6.83204C20.6047 4.93401 19.066 3.39535 17.168 3.39535H6.83204ZM12 7.16796C12.3853 7.16796 12.6977 7.48032 12.6977 7.86563V16.1344C12.6977 16.5197 12.3853 16.832 12 16.832C11.6147 16.832 11.3023 16.5197 11.3023 16.1344V7.86563C11.3023 7.48032 11.6147 7.16796 12 7.16796ZM7.86563 10.2687C8.25095 10.2687 8.56331 10.5811 8.56331 10.9664V16.1344C8.56331 16.5197 8.25095 16.832 7.86563 16.832C7.48032 16.832 7.16796 16.5197 7.16796 16.1344V10.9664C7.16796 10.5811 7.48032 10.2687 7.86563 10.2687ZM16.1344 12.3359C16.5197 12.3359 16.832 12.6483 16.832 13.0336V16.1344C16.832 16.5197 16.5197 16.832 16.1344 16.832C15.7491 16.832 15.4367 16.5197 15.4367 16.1344V13.0336C15.4367 12.6483 15.7491 12.3359 16.1344 12.3359Z" fill="black"/>
</svg>
