<svg width="24" height="24" viewBox="0 0 24 24" fill="none" xmlns="http://www.w3.org/2000/svg">
<path fill-rule="evenodd" clip-rule="evenodd" d="M8.36384 4.85654C7.57757 5.74891 7.15385 7.0181 7.15385 8.48693V10.2788C7.15385 11.0675 6.79744 11.7369 6.39258 12.2716C6.02013 12.7636 5.55407 13.2076 5.16992 13.5735C5.13879 13.6032 5.1082 13.6323 5.07823 13.6609C4.66315 14.0574 4.38462 14.6036 4.38462 15.2411C4.38462 15.9458 4.92485 16.4731 5.53846 16.4731H18.4615C19.0751 16.4731 19.6154 15.9458 19.6154 15.2411C19.6154 14.6036 19.3368 14.0574 18.9218 13.6609C18.8918 13.6323 18.8612 13.6032 18.8301 13.5735C18.4459 13.2076 17.9799 12.7636 17.6074 12.2716C17.2026 11.7369 16.8462 11.0675 16.8462 10.2788V8.48693C16.8462 7.0181 16.4224 5.74891 15.6362 4.85654C14.8607 3.97639 13.6741 3.39535 12 3.39535C10.3259 3.39535 9.13933 3.97639 8.36384 4.85654ZM7.32847 3.93008C8.39914 2.71492 9.98176 2 12 2C14.0182 2 15.6009 2.71492 16.6715 3.93008C17.7314 5.133 18.2308 6.75844 18.2308 8.48693V10.2788C18.2308 10.6321 18.3903 11.0053 18.7082 11.4253C19.0095 11.8232 19.3972 12.1931 19.7985 12.5759C19.8237 12.6 19.8489 12.624 19.8742 12.6482C20.5259 13.2705 21 14.1692 21 15.2411C21 16.6679 19.8871 17.8685 18.4615 17.8685H5.53846C4.11287 17.8685 3 16.6679 3 15.2411C3 14.1692 3.47412 13.2705 4.12579 12.6482C4.15104 12.624 4.17626 12.6 4.20143 12.576C4.60279 12.1931 4.99046 11.8232 5.29177 11.4253C5.60974 11.0053 5.76923 10.6321 5.76923 10.2788V8.48693C5.76923 6.75844 6.26858 5.133 7.32847 3.93008ZM9.53423 19.695C9.85057 19.4785 10.2811 19.5615 10.4959 19.8803C10.6341 20.0856 10.8415 20.2686 11.1073 20.4004C11.3733 20.5323 11.6815 20.6047 12 20.6047C12.3185 20.6047 12.6267 20.5323 12.8927 20.4004C13.1585 20.2686 13.3659 20.0856 13.5041 19.8803C13.7189 19.5615 14.1494 19.4785 14.4658 19.695C14.7821 19.9114 14.8645 20.3453 14.6497 20.6641C14.3658 21.0855 13.9673 21.4226 13.5041 21.6523C13.0411 21.882 12.5228 22 12 22C11.4772 22 10.9589 21.882 10.4959 21.6523C10.0327 21.4226 9.63416 21.0855 9.35029 20.6641C9.13553 20.3453 9.21789 19.9114 9.53423 19.695Z" fill="black"/>
</svg>
