<svg width="24" height="24" viewBox="0 0 24 24" fill="none" xmlns="http://www.w3.org/2000/svg">
<path fill-rule="evenodd" clip-rule="evenodd" d="M7.86563 2C8.25095 2 8.56331 2.31236 8.56331 2.69767V3.03359H15.4367V2.69767C15.4367 2.31236 15.7491 2 16.1344 2C16.5197 2 16.832 2.31236 16.832 2.69767V3.03359H17.168C19.8366 3.03359 22 5.19697 22 7.86563V17.168C22 19.8366 19.8366 22 17.168 22H6.83204C4.16338 22 2 19.8366 2 17.168V7.86563C2 5.19697 4.16338 3.03359 6.83204 3.03359H7.16796V2.69767C7.16796 2.31236 7.48032 2 7.86563 2ZM7.16796 4.42894H6.83204C4.93401 4.42894 3.39535 5.9676 3.39535 7.86563V17.168C3.39535 19.066 4.93401 20.6047 6.83204 20.6047H17.168C19.066 20.6047 20.6047 19.066 20.6047 17.168V7.86563C20.6047 5.9676 19.066 4.42894 17.168 4.42894H16.832V5.79845C16.832 6.18376 16.5197 6.49612 16.1344 6.49612C15.7491 6.49612 15.4367 6.18376 15.4367 5.79845V4.42894H8.56331V5.79845C8.56331 6.18376 8.25095 6.49612 7.86563 6.49612C7.48032 6.49612 7.16796 6.18376 7.16796 5.79845V4.42894ZM6.13437 9.93282C6.13437 9.5475 6.44673 9.23514 6.83204 9.23514H17.168C17.5533 9.23514 17.8656 9.5475 17.8656 9.93282C17.8656 10.3181 17.5533 10.6305 17.168 10.6305H6.83204C6.44673 10.6305 6.13437 10.3181 6.13437 9.93282ZM15.4367 17.168C15.4367 16.7826 15.7491 16.4703 16.1344 16.4703H17.168C17.5533 16.4703 17.8656 16.7826 17.8656 17.168C17.8656 17.5533 17.5533 17.8656 17.168 17.8656H16.1344C15.7491 17.8656 15.4367 17.5533 15.4367 17.168Z" fill="black"/>
</svg>
