<svg width="24" height="24" viewBox="0 0 24 24" fill="none" xmlns="http://www.w3.org/2000/svg">
<path fill-rule="evenodd" clip-rule="evenodd" d="M7.34884 2C7.73415 2 8.04651 2.31236 8.04651 2.69767V3.16279H15.9535V2.69767C15.9535 2.31236 16.2658 2 16.6512 2C17.0365 2 17.3488 2.31236 17.3488 2.69767V3.1661C19.9292 3.26058 22 5.36811 22 7.96443V12.0684C22 12.4537 21.6876 12.7661 21.3023 12.7661C20.917 12.7661 20.6046 12.4537 20.6046 12.0684V7.96443C20.6046 6.14787 19.1671 4.65606 17.3488 4.56277V6.18605C17.3488 6.57136 17.0365 6.88372 16.6512 6.88372C16.2658 6.88372 15.9535 6.57136 15.9535 6.18605V4.55814H8.04651V6.18605C8.04651 6.57136 7.73415 6.88372 7.34884 6.88372C6.96352 6.88372 6.65116 6.57136 6.65116 6.18605V4.56277C4.83288 4.65606 3.39535 6.14787 3.39535 7.96443V17.1984C3.39535 19.0748 4.92914 20.6047 6.83204 20.6047H12C12.3853 20.6047 12.6977 20.917 12.6977 21.3023C12.6977 21.6876 12.3853 22 12 22H6.83204C4.16824 22 2 19.8551 2 17.1984V7.96443C2 5.36811 4.07078 3.26058 6.65116 3.1661V2.69767C6.65116 2.31236 6.96352 2 7.34884 2ZM6.65116 9.67442C6.65116 9.2891 6.96352 8.97674 7.34884 8.97674H16.6512C17.0365 8.97674 17.3488 9.2891 17.3488 9.67442C17.3488 10.0597 17.0365 10.3721 16.6512 10.3721H7.34884C6.96352 10.3721 6.65116 10.0597 6.65116 9.67442ZM18.3953 14.7907C18.7807 14.7907 19.093 15.1031 19.093 15.4884V19.6968L20.8263 18.0791C21.108 17.8162 21.5495 17.8314 21.8124 18.1131C22.0753 18.3948 22.06 18.8363 21.7784 19.0992L18.8714 21.8124C18.6033 22.0625 18.1874 22.0625 17.9193 21.8124L15.0123 19.0992C14.7306 18.8363 14.7154 18.3948 14.9783 18.1131C15.2412 17.8314 15.6827 17.8162 15.9644 18.0791L17.6977 19.6968V15.4884C17.6977 15.1031 18.01 14.7907 18.3953 14.7907Z" fill="black"/>
</svg>
