<svg width="24" height="24" viewBox="0 0 24 24" fill="none" xmlns="http://www.w3.org/2000/svg">
<path fill-rule="evenodd" clip-rule="evenodd" d="M6.98241 5.47889C7.47586 3.99852 8.86124 3 10.4217 3H13.5783C15.1388 3 16.5241 3.99852 17.0176 5.47889C17.1013 5.73001 17.3075 5.92095 17.5643 5.98515L18.3076 6.17097C19.8899 6.56656 21 7.98831 21 9.61936V16.6154C21 19.0369 19.0369 21 16.6154 21H7.38462C4.96306 21 3 19.0369 3 16.6154V9.61936C3 7.98831 4.11007 6.56656 5.69242 6.17097L6.43571 5.98515C6.69251 5.92095 6.8987 5.73001 6.98241 5.47889ZM10.4217 4.38462C9.45722 4.38462 8.60096 5.00177 8.29597 5.91674C8.06256 6.61697 7.48759 7.14941 6.77153 7.32842L6.02824 7.51425C5.06227 7.75574 4.38462 8.62366 4.38462 9.61936V16.6154C4.38462 18.2722 5.72776 19.6154 7.38462 19.6154H16.6154C18.2722 19.6154 19.6154 18.2722 19.6154 16.6154V9.61936C19.6154 8.62366 18.9377 7.75574 17.9718 7.51425L17.2285 7.32842C16.5124 7.14941 15.9374 6.61697 15.704 5.91675C15.399 5.00177 14.5428 4.38462 13.5783 4.38462H10.4217ZM12 10.8462C10.8529 10.8462 9.92308 11.776 9.92308 12.9231C9.92308 14.0701 10.8529 15 12 15C13.1471 15 14.0769 14.0701 14.0769 12.9231C14.0769 11.776 13.1471 10.8462 12 10.8462ZM8.53846 12.9231C8.53846 11.0113 10.0882 9.46154 12 9.46154C13.9118 9.46154 15.4615 11.0113 15.4615 12.9231C15.4615 14.8348 13.9118 16.3846 12 16.3846C10.0882 16.3846 8.53846 14.8348 8.53846 12.9231Z" fill="black"/>
</svg>
