<svg width="24" height="24" viewBox="0 0 24 24" fill="none" xmlns="http://www.w3.org/2000/svg">
<path fill-rule="evenodd" clip-rule="evenodd" d="M12.5792 4.45946C8.15193 4.45946 4.62187 7.86721 4.62187 12C4.62187 12.3906 4.74444 12.9901 4.89667 13.7325C5.03669 14.4153 5.20114 15.2185 5.20114 15.8595C5.20114 16.2714 5.05151 16.7895 4.88869 17.2545C4.71598 17.7476 4.48935 18.2858 4.26802 18.7773C4.2014 18.9253 4.13483 19.07 4.06981 19.209C4.35106 19.1445 4.65362 19.0757 4.96079 19.0069C5.57814 18.8687 6.21797 18.7294 6.74194 18.6244C7.00346 18.572 7.24109 18.5272 7.43492 18.4951C7.60826 18.4664 7.80272 18.4378 7.94506 18.4378C8.33744 18.4378 8.75112 18.5291 9.13547 18.6378C9.46414 18.7309 9.81519 18.85 10.1556 18.9656C10.2171 18.9865 10.2782 19.0073 10.3388 19.0277C11.1723 19.3092 11.9288 19.5405 12.5792 19.5405C17.0065 19.5405 20.5366 16.1328 20.5366 12C20.5366 7.86721 17.0065 4.45946 12.5792 4.45946ZM2.0836 19.9314L2.08771 19.9235L2.10145 19.8971C2.11365 19.8737 2.13175 19.8387 2.15491 19.7936C2.20124 19.7032 2.26777 19.5724 2.34773 19.4117C2.50791 19.0899 2.7208 18.6508 2.93303 18.1794C3.14615 17.7061 3.35397 17.2105 3.50711 16.7732C3.67012 16.3078 3.73772 15.9989 3.73772 15.8595C3.73772 15.3977 3.61253 14.7545 3.46292 14.0249C3.45538 13.9881 3.44775 13.951 3.44005 13.9136C3.30768 13.2699 3.15845 12.5444 3.15845 12C3.15845 6.99771 7.40885 3 12.5792 3C17.7496 3 22 6.99771 22 12C22 17.0023 17.7496 21 12.5792 21C11.6497 21 10.6685 20.68 9.86944 20.4101C9.80371 20.3879 9.73919 20.366 9.6758 20.3445C9.33398 20.2285 9.02501 20.1237 8.73601 20.0419C8.38969 19.9439 8.13194 19.8973 7.94506 19.8973C7.94684 19.8973 7.94778 19.8973 7.94778 19.8973C7.94779 19.8974 7.92834 19.8983 7.88048 19.9042C7.82849 19.9106 7.75991 19.9207 7.67454 19.9348C7.50406 19.963 7.28461 20.0043 7.03021 20.0553C6.52235 20.1571 5.89503 20.2935 5.28143 20.4309C4.66871 20.5681 4.07355 20.7055 3.63129 20.8086C3.41024 20.8601 3.22759 20.903 3.10027 20.933L2.9022 20.9799C2.62319 21.0463 2.33026 20.9442 2.15412 20.7184C1.97799 20.4926 1.95052 20.1848 2.0836 19.9314C2.08361 19.9314 2.08359 19.9314 2.0836 19.9314Z" fill="black"/>
</svg>
