<svg width="24" height="24" viewBox="0 0 24 24" fill="none" xmlns="http://www.w3.org/2000/svg">
<path fill-rule="evenodd" clip-rule="evenodd" d="M17.3959 2.11725C17.7165 2.33098 17.8031 2.76414 17.5894 3.08474L13.296 9.52487C13.0823 9.84548 12.6491 9.93211 12.3285 9.71838C12.0079 9.50465 11.9213 9.07149 12.135 8.75088L16.4284 2.31075C16.6421 1.99015 17.0753 1.90351 17.3959 2.11725ZM20.401 5.10564C20.6518 5.39819 20.6179 5.83863 20.3253 6.08939L15.3164 10.3828C15.0238 10.6336 14.5834 10.5997 14.3326 10.3071C14.0819 10.0146 14.1158 9.57416 14.4083 9.3234L19.4172 5.02997C19.7098 4.77921 20.1502 4.81309 20.401 5.10564ZM2.20434 11.5066C2.33518 11.3757 2.51264 11.3022 2.69767 11.3022H21.3023C21.6876 11.3022 22 11.6146 22 11.9999C22 14.6521 20.9464 17.1957 19.0711 19.071C17.1957 20.9464 14.6522 22 12 22C10.6868 22 9.38642 21.7413 8.17316 21.2388C6.95991 20.7362 5.85751 19.9996 4.92893 19.071C3.05357 17.1957 2 14.6521 2 11.9999C2 11.8149 2.0735 11.6374 2.20434 11.5066ZM3.42366 12.6976C3.58845 14.7243 4.46717 16.6359 5.9156 18.0844C6.71461 18.8834 7.66318 19.5172 8.70715 19.9497C9.75111 20.3821 10.87 20.6047 12 20.6047C14.2821 20.6047 16.4707 19.6981 18.0844 18.0844C19.5328 16.6359 20.4116 14.7243 20.5763 12.6976H3.42366Z" fill="black"/>
</svg>
