<svg width="24" height="24" viewBox="0 0 24 24" fill="none" xmlns="http://www.w3.org/2000/svg">
<path fill-rule="evenodd" clip-rule="evenodd" d="M6.8718 3.53846C5.03085 3.53846 3.53846 5.03085 3.53846 6.8718V17.1282C3.53846 18.9692 5.03085 20.4615 6.8718 20.4615H17.1282C18.9692 20.4615 20.4615 18.9692 20.4615 17.1282V10.9744C20.4615 10.5495 20.8059 10.2051 21.2308 10.2051C21.6556 10.2051 22 10.5495 22 10.9744V17.1282C22 19.8188 19.8188 22 17.1282 22H6.8718C4.18118 22 2 19.8188 2 17.1282V6.8718C2 4.18118 4.18118 2 6.8718 2H13.0256C13.4505 2 13.7949 2.3444 13.7949 2.76923C13.7949 3.19407 13.4505 3.53846 13.0256 3.53846H6.8718ZM19.3819 3.53846C19.0956 3.53846 18.8209 3.65221 18.6185 3.85468L16.9087 5.56444L18.4356 7.09129L20.1453 5.38153C20.3478 5.17906 20.4615 4.90445 20.4615 4.61811C20.4615 4.33177 20.3478 4.05715 20.1453 3.85468C19.9428 3.65221 19.6682 3.53846 19.3819 3.53846ZM17.3477 8.17915L15.8209 6.6523L10.4892 11.9839L9.98028 14.0197L12.0161 13.5108L17.3477 8.17915ZM17.5306 2.76683C18.0216 2.27584 18.6875 2 19.3819 2C20.0763 2 20.7422 2.27584 21.2332 2.76683C21.7242 3.25782 22 3.92374 22 4.61811C22 5.31247 21.7242 5.9784 21.2332 6.46939L12.9533 14.7493C12.8547 14.8479 12.7312 14.9178 12.5959 14.9516L9.10964 15.8232C8.84751 15.8887 8.57021 15.8119 8.37915 15.6209C8.18809 15.4298 8.11128 15.1525 8.17681 14.8904L9.04838 11.4041C9.0822 11.2688 9.15213 11.1453 9.25072 11.0467L17.5306 2.76683Z" fill="black"/>
</svg>
