<svg width="24" height="24" viewBox="0 0 24 24" fill="none" xmlns="http://www.w3.org/2000/svg">
<path fill-rule="evenodd" clip-rule="evenodd" d="M7.02395 8.85234C5.55614 9.71768 4.36723 10.7721 3.62102 11.5145C3.32012 11.8139 3.32012 12.1861 3.62102 12.4855C4.36723 13.2279 5.55614 14.2823 7.02395 15.1477C8.49484 16.0148 10.2025 16.6667 12 16.6667C13.7975 16.6667 15.5052 16.0148 16.976 15.1477C18.4439 14.2823 19.6328 13.2279 20.379 12.4855C20.6799 12.1861 20.6799 11.8139 20.379 11.5145C19.6328 10.7721 18.4439 9.71768 16.976 8.85234C15.5052 7.98519 13.7975 7.33333 12 7.33333C10.2025 7.33333 8.49484 7.98519 7.02395 8.85234ZM6.2913 7.71759C7.89038 6.77487 9.85355 6 12 6C14.1465 6 16.1096 6.77487 17.7087 7.71759C19.3109 8.66213 20.5911 9.8007 21.3853 10.5909C22.2049 11.4063 22.2049 12.5937 21.3853 13.4091C20.5911 14.1993 19.3109 15.3379 17.7087 16.2824C16.1096 17.2251 14.1464 18 12 18C9.85355 18 7.89038 17.2251 6.2913 16.2824C4.68914 15.3379 3.40894 14.1993 2.61468 13.4091C1.79511 12.5937 1.79511 11.4063 2.61468 10.5909C3.40894 9.8007 4.68914 8.66213 6.2913 7.71759ZM12 10C10.4836 10 9.44336 10.9879 9.44336 12C9.44336 13.0121 10.4836 14 12 14C13.5164 14 14.5566 13.0121 14.5566 12C14.5566 10.9879 13.5164 10 12 10ZM8.04801 12C8.04801 10.0666 9.92183 8.66667 12 8.66667C14.0782 8.66667 15.952 10.0666 15.952 12C15.952 13.9334 14.0782 15.3333 12 15.3333C9.92183 15.3333 8.04801 13.9334 8.04801 12Z" fill="black"/>
</svg>
