<svg width="24" height="24" viewBox="0 0 24 24" fill="none" xmlns="http://www.w3.org/2000/svg">
<path fill-rule="evenodd" clip-rule="evenodd" d="M2.20434 2.20434C2.4768 1.93189 2.91855 1.93189 3.191 2.20434L21.7957 20.809C22.0681 21.0815 22.0681 21.5232 21.7957 21.7957C21.5232 22.0681 21.0815 22.0681 20.809 21.7957L16.534 17.5206C15.2075 18.3128 13.6655 18.8992 12 18.8992C9.9173 18.8992 8.0262 17.9826 6.50223 16.8861C4.97276 15.7857 3.7531 14.4614 2.99839 13.5451L3.52405 13.1121L2.99839 13.5451C2.25239 12.6393 2.25239 11.3607 2.99839 10.4549C3.71632 9.58329 4.85678 8.34014 6.28586 7.27252L2.20434 3.191C1.93189 2.91855 1.93189 2.4768 2.20434 2.20434ZM7.28387 8.27053C5.90443 9.2694 4.78376 10.4821 4.07544 11.342C3.75384 11.7325 3.75384 12.2675 4.07544 12.658C4.78853 13.5237 5.92148 14.7494 7.31714 15.7535C8.7183 16.7615 10.3248 17.5039 12 17.5039C13.2236 17.5039 14.4115 17.108 15.5122 16.4989L7.28387 8.27053ZM12 6.49612C11.6889 6.49612 11.3804 6.52165 11.075 6.56975C10.6944 6.6297 10.3373 6.36974 10.2773 5.98912C10.2174 5.6085 10.4773 5.25134 10.8579 5.19139C11.2312 5.1326 11.6124 5.10078 12 5.10078C14.0827 5.10078 15.9738 6.01743 17.4978 7.11386C19.0272 8.21425 20.2469 9.53864 21.0016 10.4549C21.7476 11.3607 21.7476 12.6393 21.0016 13.5451C20.6644 13.9545 20.2367 14.4425 19.7321 14.9545C19.4616 15.2289 19.0199 15.2321 18.7455 14.9616C18.4711 14.6912 18.4678 14.2494 18.7383 13.975C19.209 13.4974 19.609 13.0411 19.9246 12.658C20.2462 12.2675 20.2462 11.7325 19.9246 11.342C19.2115 10.4763 18.0785 9.25064 16.6829 8.24653C15.2817 7.23845 13.6752 6.49612 12 6.49612ZM8.82431 12.1286C9.1965 12.0289 9.57906 12.2498 9.67878 12.622C9.78796 13.0294 10.0025 13.401 10.3008 13.6992C10.599 13.9975 10.9706 14.212 11.378 14.3212C11.7502 14.4209 11.9711 14.8035 11.8714 15.1757C11.7716 15.5479 11.3891 15.7687 11.0169 15.669C10.3728 15.4964 9.78557 15.1574 9.31409 14.6859C8.84262 14.2144 8.50355 13.6272 8.33098 12.9831C8.23125 12.6109 8.45213 12.2284 8.82431 12.1286Z" fill="black"/>
</svg>
