<svg width="24" height="24" viewBox="0 0 24 24" fill="none" xmlns="http://www.w3.org/2000/svg">
<path fill-rule="evenodd" clip-rule="evenodd" d="M2 4.77423C2 3.24206 3.24206 2 4.77423 2H19.2258C20.7579 2 22 3.24206 22 4.77423C22 5.6017 21.704 6.40188 21.1655 7.03014L17.87 10.8749C16.5332 12.4344 15.7985 14.4207 15.7985 16.4747V18.9767C15.7985 20.6464 14.4449 22 12.7752 22H11.2248C9.55511 22 8.20155 20.6464 8.20155 18.9767V16.4747C8.20155 14.4207 7.46678 12.4344 6.13004 10.8749L2.83452 7.03014C2.296 6.40188 2 5.6017 2 4.77423ZM4.77423 3.39535C4.01269 3.39535 3.39535 4.01269 3.39535 4.77423C3.39535 5.26861 3.5722 5.74669 3.89394 6.12206L7.18947 9.96683C8.74298 11.7793 9.5969 14.0876 9.5969 16.4747V18.9767C9.5969 19.8758 10.3257 20.6047 11.2248 20.6047H12.7752C13.6743 20.6047 14.4031 19.8758 14.4031 18.9767V16.4747C14.4031 14.0876 15.257 11.7793 16.8105 9.96683L20.1061 6.12206C20.4278 5.74669 20.6047 5.26861 20.6047 4.77423C20.6047 4.01269 19.9873 3.39535 19.2258 3.39535H4.77423Z" fill="black"/>
</svg>
