<svg width="24" height="24" viewBox="0 0 24 24" fill="none" xmlns="http://www.w3.org/2000/svg">
<path fill-rule="evenodd" clip-rule="evenodd" d="M12 3.39535C7.24778 3.39535 3.39535 7.24778 3.39535 12C3.39535 16.7522 7.24778 20.6047 12 20.6047C16.7522 20.6047 20.6047 16.7522 20.6047 12C20.6047 7.24778 16.7522 3.39535 12 3.39535ZM2 12C2 6.47715 6.47715 2 12 2C17.5228 2 22 6.47715 22 12C22 17.5228 17.5228 22 12 22C6.47715 22 2 17.5228 2 12ZM12 7.72433C12.3853 7.72433 12.6976 8.03668 12.6976 8.422V11.7415L16.1645 15.7816C16.4154 16.074 16.3818 16.5145 16.0894 16.7654C15.7969 17.0163 15.3565 16.9827 15.1056 16.6903L11.4705 12.4542C11.362 12.3277 11.3023 12.1665 11.3023 11.9998V8.422C11.3023 8.03668 11.6146 7.72433 12 7.72433Z" fill="black"/>
</svg>
