<svg width="24" height="24" viewBox="0 0 24 24" fill="none" xmlns="http://www.w3.org/2000/svg">
<path fill-rule="evenodd" clip-rule="evenodd" d="M12 3.39535C7.24778 3.39535 3.39535 7.24778 3.39535 12C3.39535 16.7522 7.24778 20.6047 12 20.6047C16.7522 20.6047 20.6047 16.7522 20.6047 12C20.6047 7.24778 16.7522 3.39535 12 3.39535ZM2 12C2 6.47715 6.47715 2 12 2C17.5228 2 22 6.47715 22 12C22 17.5228 17.5228 22 12 22C6.47715 22 2 17.5228 2 12ZM12.2828 8.43199C12.0017 8.37608 11.7103 8.40478 11.4456 8.51445C11.1808 8.62412 10.9545 8.80984 10.7953 9.04813C10.636 9.28642 10.5511 9.56658 10.5511 9.85316C10.5511 10.2385 10.2387 10.5508 9.85338 10.5508C9.46806 10.5508 9.15571 10.2385 9.15571 9.85316C9.15571 9.2906 9.32252 8.74067 9.63507 8.27292C9.94761 7.80517 10.3918 7.4406 10.9116 7.22531C11.4313 7.01003 12.0032 6.9537 12.555 7.06345C13.1067 7.1732 13.6135 7.4441 14.0113 7.8419C14.4091 8.23969 14.68 8.7465 14.7898 9.29826C14.8995 9.85001 14.8432 10.4219 14.6279 10.9417C14.4126 11.4614 14.0481 11.9056 13.5803 12.2182C13.3092 12.3993 13.0105 12.5315 12.6977 12.6106V13.431C12.6977 13.8163 12.3854 14.1287 12.0001 14.1287C11.6148 14.1287 11.3024 13.8163 11.3024 13.431V11.9999C11.3024 11.6145 11.6148 11.3022 12.0001 11.3022C12.2867 11.3022 12.5668 11.2172 12.8051 11.058C13.0434 10.8988 13.2291 10.6725 13.3388 10.4077C13.4485 10.1429 13.4772 9.85156 13.4212 9.57048C13.3653 9.28939 13.2273 9.03121 13.0247 8.82856C12.822 8.62591 12.5638 8.4879 12.2828 8.43199ZM11.9999 16.9909C12.1877 16.9909 12.3398 16.8387 12.3398 16.651C12.3398 16.4633 12.1877 16.3111 11.9999 16.3111C11.8123 16.3111 11.6601 16.4633 11.6601 16.651C11.6601 16.8388 11.8123 16.9909 11.9999 16.9909ZM10.9445 16.651C10.9445 16.0681 11.417 15.5956 11.9999 15.5956C12.5828 15.5956 13.0554 16.0681 13.0554 16.651C13.0554 17.234 12.5828 17.7065 11.9999 17.7065C11.417 17.7065 10.9445 17.2339 10.9445 16.651Z" fill="black"/>
</svg>
