<svg width="24" height="24" viewBox="0 0 24 24" fill="none" xmlns="http://www.w3.org/2000/svg">
<path fill-rule="evenodd" clip-rule="evenodd" d="M12 3.60921C10.321 3.60921 8.70191 4.30666 7.50152 5.56257C6.29981 6.81985 5.61798 8.53341 5.61798 10.3282C5.61798 12.9456 7.24287 15.471 9.00564 17.4178C9.87281 18.3755 10.7424 19.1592 11.3959 19.7036C11.6289 19.8977 11.8336 20.0608 12 20.1898C12.1664 20.0608 12.3711 19.8977 12.6041 19.7036C13.2576 19.1592 14.1272 18.3755 14.9944 17.4178C16.7571 15.471 18.382 12.9456 18.382 10.3282C18.382 8.53341 17.7002 6.81985 16.4985 5.56257C15.2981 4.30666 13.679 3.60921 12 3.60921ZM12 21.1955C11.5355 21.8543 11.5353 21.8542 11.5351 21.854L11.5328 21.8524L11.5274 21.8486L11.5091 21.8356C11.4935 21.8246 11.4713 21.8087 11.4429 21.7881C11.3861 21.7469 11.3045 21.687 11.2016 21.6093C10.996 21.4539 10.7049 21.2272 10.3569 20.9372C9.66206 20.3583 8.73393 19.5224 7.80335 18.4947C5.97062 16.4707 4 13.5624 4 10.3282C4 8.13218 4.83341 6.01845 6.32885 4.45385C7.82562 2.88786 9.86467 2 12 2C14.1353 2 16.1744 2.88786 17.6711 4.45385C19.1666 6.01845 20 8.13218 20 10.3282C20 13.5624 18.0294 16.4707 16.1966 18.4947C15.2661 19.5224 14.3379 20.3583 13.6431 20.9372C13.2951 21.2272 13.004 21.4539 12.7984 21.6093C12.6955 21.687 12.6139 21.7469 12.5571 21.7881C12.5287 21.8087 12.5065 21.8246 12.4909 21.8356L12.4726 21.8486L12.4672 21.8524L12.4655 21.8536C12.4653 21.8537 12.4645 21.8543 12 21.1955ZM12 21.1955L12.4645 21.8543C12.1857 22.0488 11.8139 22.0485 11.5351 21.854L12 21.1955ZM12 7.69622C10.7447 7.69622 9.72708 8.7083 9.72708 9.95677C9.72708 11.2052 10.7447 12.2173 12 12.2173C13.2552 12.2173 14.2728 11.2052 14.2728 9.95677C14.2728 8.7083 13.2552 7.69622 12 7.69622ZM8.1091 9.95677C8.1091 7.81956 9.8511 6.08701 12 6.08701C14.1488 6.08701 15.8908 7.81956 15.8908 9.95677C15.8908 12.094 14.1488 13.8265 12 13.8265C9.8511 13.8265 8.1091 12.094 8.1091 9.95677Z" fill="black"/>
</svg>
