<svg width="24" height="24" viewBox="0 0 24 24" fill="none" xmlns="http://www.w3.org/2000/svg">
<path fill-rule="evenodd" clip-rule="evenodd" d="M1 7.42857C1 5.00948 2.91373 3 5.33333 3H18.6667C21.0863 3 23 5.00948 23 7.42857V16.5714C23 18.9905 21.0863 21 18.6667 21H5.33333C2.91373 21 1 18.9905 1 16.5714V7.42857ZM5.33333 5C4.07104 5 3 6.06057 3 7.42857V16.5714C3 17.9394 4.07104 19 5.33333 19H18.6667C19.929 19 21 17.9394 21 16.5714V7.42857C21 6.06057 19.929 5 18.6667 5H5.33333ZM5.67231 7.93625C6.02323 7.50979 6.65343 7.44855 7.0799 7.79947L12.0001 11.8481L16.9202 7.79947C17.3467 7.44855 17.9769 7.50979 18.3278 7.93625C18.6787 8.36272 18.6175 8.99292 18.191 9.34384L12.0001 14.4381L5.8091 9.34384C5.38264 8.99292 5.32139 8.36272 5.67231 7.93625Z" fill="black"/>
</svg>
