<svg width="24" height="24" viewBox="0 0 24 24" fill="none" xmlns="http://www.w3.org/2000/svg">
<path fill-rule="evenodd" clip-rule="evenodd" d="M5.37082 2.24629C8.09731 1.33688 10.8819 3.03668 11.6611 5.85205L11.6611 5.85206C12.2207 7.8742 11.6301 9.99515 10.2658 11.3645C10.5906 11.8114 10.954 12.2382 11.3561 12.6407C11.7571 13.042 12.1822 13.4046 12.6273 13.729C13.9953 12.3538 16.1227 11.7566 18.1507 12.3187L18.1507 12.3187C20.9651 13.0989 22.6622 15.8855 21.754 18.6124C21.1415 20.4517 20.0236 21.5186 18.5657 21.8706C17.1875 22.2034 15.6692 21.8542 14.2813 21.2773C11.4914 20.1175 8.71556 17.819 7.44769 16.5502C6.14968 15.2512 3.86129 12.4715 2.71221 9.68725C2.14049 8.30197 1.79749 6.78949 2.13101 5.41779C2.48374 3.96708 3.5452 2.85518 5.37082 2.24629ZM5.642 3.0593L5.37082 2.24629L5.642 3.0593ZM10.0091 6.30927C9.45792 4.31782 7.59248 3.31219 5.91318 3.87231L5.91317 3.87232C4.53657 4.33145 3.98447 5.05 3.79658 5.82276C3.58948 6.67454 3.7788 7.77854 4.29667 9.03334C5.32674 11.5292 7.44653 14.124 8.66019 15.3386C9.84469 16.524 12.4366 18.6541 14.9392 19.6945C16.1976 20.2176 17.3067 20.4113 18.1634 20.2044C18.9402 20.0169 19.6646 19.4616 20.1277 18.0708L20.1278 18.0708C20.688 16.3886 19.6817 14.5218 17.6928 13.9705C16.2144 13.5608 14.6862 14.0317 13.7666 15.0166C13.3272 15.4872 12.5078 15.7386 11.8222 15.26C11.2307 14.8471 10.6688 14.3778 10.1436 13.8523C9.6176 13.3259 9.14812 12.7626 8.73515 12.1698C8.25952 11.487 8.5067 10.6707 8.97381 10.2303C9.95123 9.30882 10.4174 7.7844 10.0091 6.30927Z" fill="black"/>
</svg>
