<svg width="24" height="24" viewBox="0 0 24 24" fill="none" xmlns="http://www.w3.org/2000/svg">
<path fill-rule="evenodd" clip-rule="evenodd" d="M11.1873 5.37143C7.97528 5.37143 5.37143 7.97528 5.37143 11.1873C5.37143 14.3993 7.97528 17.0032 11.1873 17.0032C14.3993 17.0032 17.0032 14.3993 17.0032 11.1873C17.0032 7.97528 14.3993 5.37143 11.1873 5.37143ZM4 11.1873C4 7.21786 7.21786 4 11.1873 4C15.1567 4 18.3746 7.21786 18.3746 11.1873C18.3746 12.9251 17.7579 14.5188 16.7313 15.7616L19.7992 18.8294C20.0669 19.0972 20.0669 19.5314 19.7992 19.7992C19.5314 20.0669 19.0972 20.0669 18.8294 19.7992L15.7616 16.7313C14.5188 17.7579 12.9251 18.3746 11.1873 18.3746C7.21786 18.3746 4 15.1567 4 11.1873Z" fill="black"/>
</svg>
