<svg width="24" height="24" viewBox="0 0 24 24" fill="none" xmlns="http://www.w3.org/2000/svg">
<path fill-rule="evenodd" clip-rule="evenodd" d="M12 2C12.2705 2 12.5166 2.15635 12.6316 2.40121L15.3479 8.18788L21.4083 9.11934C21.6667 9.15905 21.8812 9.33989 21.964 9.58785C22.0469 9.8358 21.9841 10.1093 21.8015 10.2963L17.3964 14.8079L18.4374 21.19C18.4804 21.4537 18.369 21.7188 18.1506 21.8727C17.9322 22.0266 17.645 22.0422 17.4112 21.9129L12 18.9205L6.58879 21.9129C6.35497 22.0422 6.06784 22.0266 5.8494 21.8727C5.63096 21.7188 5.51959 21.4537 5.5626 21.19L6.60356 14.8079L2.1985 10.2963C2.01587 10.1093 1.95313 9.8358 2.03597 9.58785C2.1188 9.33989 2.33331 9.15905 2.59171 9.11934L8.65205 8.18788L11.3684 2.40121C11.4834 2.15635 11.7295 2 12 2ZM12 4.33952L9.75714 9.11744C9.65837 9.32784 9.46131 9.47524 9.23157 9.51055L4.1448 10.2924L7.84803 14.0852C8.00279 14.2437 8.07308 14.4662 8.03742 14.6849L7.17107 19.9964L11.6624 17.5128C11.8725 17.3966 12.1275 17.3966 12.3376 17.5128L16.8289 19.9964L15.9626 14.6849C15.9269 14.4662 15.9972 14.2437 16.152 14.0852L19.8552 10.2924L14.7684 9.51055C14.5387 9.47524 14.3416 9.32784 14.2429 9.11744L12 4.33952Z" fill="black"/>
</svg>
