<svg width="24" height="24" viewBox="0 0 24 24" fill="none" xmlns="http://www.w3.org/2000/svg">
<path fill-rule="evenodd" clip-rule="evenodd" d="M9.80558 3.39537C9.35051 3.39537 9.02857 3.749 9.02857 4.12828L9.02844 4.84444C9.02844 4.8444 9.02844 4.84448 9.02844 4.84444C9.02851 5.22395 9.35084 5.57792 9.80558 5.57792H14.1942C14.6489 5.57792 14.9713 5.224 14.9713 4.84444L14.9714 4.12828C14.9714 4.12824 14.9714 4.12832 14.9714 4.12828C14.9714 3.74921 14.6493 3.39537 14.1942 3.39537H9.80558ZM16.3427 4.82597L16.3427 4.84444C16.3427 4.8444 16.3427 4.84448 16.3427 4.84444C16.3427 6.04564 15.3551 6.9733 14.1942 6.9733H9.80558C8.64455 6.9733 7.65701 6.04571 7.65701 4.84444L7.65701 4.82597H6.14857C5.93397 4.82597 5.73332 4.90963 5.58945 5.05037C5.4465 5.19023 5.37143 5.37394 5.37143 5.55945V19.8711C5.37143 20.0567 5.4465 20.2404 5.58945 20.3802C5.73332 20.521 5.93397 20.6046 6.14857 20.6046H17.8514C18.066 20.6046 18.2667 20.521 18.4105 20.3802C18.5535 20.2404 18.6286 20.0567 18.6286 19.8711V5.55945C18.6286 5.37394 18.5535 5.19023 18.4105 5.05037C18.2667 4.90963 18.066 4.82597 17.8514 4.82597H16.3427ZM7.7743 3.43059C8.06873 2.58618 8.88242 2 9.80558 2H14.1942C15.1172 2 15.9312 2.58611 16.2257 3.43059H17.8514C18.4128 3.43059 18.9563 3.6485 19.3611 4.04455C19.7668 4.44149 20 4.98582 20 5.55945V19.8711C20 20.4448 19.7668 20.9891 19.3611 21.386C18.9563 21.7821 18.4128 22 17.8514 22H6.14857C5.58722 22 5.04371 21.7821 4.6389 21.386C4.23317 20.9891 4 20.4448 4 19.8711V5.55945C4 4.98582 4.23317 4.44149 4.6389 4.04455C5.04371 3.6485 5.58722 3.43059 6.14857 3.43059H7.7743ZM15.2993 9.98433C15.6168 10.1943 15.7069 10.6265 15.5005 10.9495L11.8434 16.6742C11.7411 16.8343 11.5789 16.9447 11.3945 16.9798C11.21 17.0149 11.0195 16.9715 10.8673 16.8599L7.94163 14.7131C7.63447 14.4877 7.56503 14.0517 7.78655 13.7391C8.00807 13.4266 8.43665 13.356 8.74382 13.5813L11.0858 15.2997L14.3506 10.1891C14.557 9.866 14.9818 9.77434 15.2993 9.98433Z" fill="black"/>
</svg>
