<svg width="24" height="24" viewBox="0 0 24 24" fill="none" xmlns="http://www.w3.org/2000/svg">
<path fill-rule="evenodd" clip-rule="evenodd" d="M9.13766 4.38462C7.72783 4.38462 6.6153 5.48589 6.6153 6.80767C6.6153 8.12945 7.72783 9.23071 9.13766 9.23071C10.5475 9.23071 11.66 8.12945 11.66 6.80767C11.66 5.48589 10.5475 4.38462 9.13766 4.38462ZM5.21996 6.80767C5.21996 4.68832 6.99074 3 9.13766 3C11.2846 3 13.0554 4.68832 13.0554 6.80767C13.0554 8.92701 11.2846 10.6153 9.13766 10.6153C6.99074 10.6153 5.21996 8.92701 5.21996 6.80767ZM14.1646 3.69231C14.1646 3.30996 14.4769 3 14.8622 3C15.8956 3 16.8902 3.39701 17.6262 4.10908C18.3628 4.82172 18.7799 5.79207 18.7799 6.80767C18.7799 7.82326 18.3628 8.79361 17.6262 9.50625C16.8902 10.2183 15.8956 10.6153 14.8622 10.6153C14.4769 10.6153 14.1646 10.3054 14.1646 9.92302C14.1646 9.54067 14.4769 9.23071 14.8622 9.23071C15.5368 9.23071 16.1803 8.97128 16.6521 8.51486C17.1233 8.05902 17.3846 7.44456 17.3846 6.80767C17.3846 6.17078 17.1233 5.55631 16.6521 5.10047C16.1803 4.64405 15.5368 4.38462 14.8622 4.38462C14.4769 4.38462 14.1646 4.07466 14.1646 3.69231ZM9.13775 13.3847C7.60914 13.3847 6.1466 13.9723 5.07096 15.013C3.99593 16.0531 3.39534 17.46 3.39534 18.9231V19.6154H14.8802V18.9231C14.8802 17.46 14.2796 16.0531 13.2045 15.013C12.1289 13.9723 10.6664 13.3847 9.13775 13.3847ZM4.09689 14.0216C5.43675 12.7253 7.25032 12.0001 9.13775 12.0001C11.0252 12.0001 12.8387 12.7253 14.1786 14.0216C15.5191 15.3185 16.2755 17.0812 16.2755 18.9231V20.3077C16.2755 20.69 15.9631 21 15.5778 21H2.69767C2.31236 21 2 20.69 2 20.3077V18.9231C2 17.0812 2.75642 15.3185 4.09689 14.0216ZM16.4979 12.7144C16.6319 12.3559 17.0334 12.1731 17.3947 12.3061C18.7435 12.8025 19.9077 13.6845 20.7311 14.8384C21.5548 15.9925 21.9981 17.3634 22 18.7696V20.3074C22 20.6898 21.6876 20.9997 21.3023 20.9997H19.1556C18.7703 20.9997 18.458 20.6898 18.458 20.3074C18.458 19.9251 18.7703 19.6151 19.1556 19.6151H20.6047V18.7714C20.6031 17.6538 20.251 16.5614 19.5924 15.6386C18.9337 14.7156 17.9988 14.0052 16.9094 13.6043C16.5482 13.4713 16.3639 13.0729 16.4979 12.7144Z" fill="black"/>
</svg>
