<svg width="24" height="24" viewBox="0 0 24 24" fill="none" xmlns="http://www.w3.org/2000/svg">
<path fill-rule="evenodd" clip-rule="evenodd" d="M19.4074 2.08067C20.9402 1.64273 22.3573 3.05984 21.9193 4.59262L17.5264 19.9678C16.8595 22.3019 13.7418 22.7403 12.4571 20.6807L9.38456 15.7549C9.09655 15.2932 8.70679 14.9034 8.24506 14.6154L3.3193 11.5429C1.2597 10.2582 1.69812 7.14046 4.03215 6.47359L19.4074 2.08067ZM20.3352 4.14001C20.4181 3.85003 20.15 3.58193 19.86 3.66478L4.48476 8.0577C3.52369 8.33229 3.34316 9.61609 4.19123 10.1451L9.11699 13.2176C9.22115 13.2826 9.3228 13.3511 9.42179 13.423C9.44333 13.395 9.46691 13.3681 9.49254 13.3425L13.3757 9.45929C13.6974 9.13759 14.219 9.13759 14.5407 9.45929C14.8624 9.78098 14.8624 10.3026 14.5407 10.6242L10.6575 14.5074C10.6319 14.5331 10.605 14.5566 10.577 14.5782C10.6489 14.6772 10.7174 14.7788 10.7824 14.883L13.8549 19.8088C14.3839 20.6568 15.6677 20.4763 15.9423 19.5152L20.3352 4.14001Z" fill="black"/>
</svg>
