<svg width="24" height="24" viewBox="0 0 24 24" fill="none" xmlns="http://www.w3.org/2000/svg">
<path fill-rule="evenodd" clip-rule="evenodd" d="M13.614 2.1549C14.0984 1.94561 14.6433 1.94855 15.1254 2.16282C15.1351 2.16714 15.1448 2.17167 15.1543 2.17643L16.2932 2.74625C16.6254 2.91245 16.7691 3.30978 16.6201 3.65003C16.55 3.81014 16.5104 3.98545 16.505 4.16504C16.4996 4.34463 16.5285 4.52272 16.589 4.68805C16.6496 4.85333 16.7399 5.00085 16.8524 5.12275C16.9647 5.24454 17.0965 5.33799 17.2383 5.39997C17.3799 5.46188 17.5301 5.49179 17.6802 5.48927C17.8303 5.48676 17.9798 5.45181 18.1199 5.38498C18.2603 5.31806 18.3897 5.21991 18.4988 5.09396C18.6079 4.96791 18.6941 4.817 18.7498 4.64943C18.8118 4.46323 18.9493 4.31173 19.1287 4.23208C19.3081 4.15244 19.5127 4.15202 19.6923 4.23093L20.8875 4.75576C20.903 4.76257 20.9183 4.76994 20.9332 4.77785C21.3771 5.01266 21.7097 5.4106 21.8776 5.88104C22.0452 6.35085 22.0406 6.86902 21.8642 7.33567L21.8598 7.34738L16.5166 20.7532L16.5156 20.7557C16.3203 21.2401 15.948 21.6366 15.4655 21.8451C14.9812 22.0544 14.4362 22.0514 13.9541 21.8372L13.9488 21.8348L8.24017 19.2406L8.23804 19.2396C7.76046 19.0207 7.39651 18.6164 7.21106 18.1283C7.02592 17.641 7.02839 17.0976 7.21814 16.6121L7.22291 16.5998L7.84005 15.1043L12.5629 3.24699L12.564 3.2443C12.7592 2.75992 13.1316 2.36337 13.614 2.1549ZM14.5472 3.43295C14.4242 3.38187 14.29 3.38285 14.1675 3.43579C14.0395 3.49109 13.9236 3.60426 13.8586 3.76491C13.8584 3.76527 13.8583 3.76564 13.8581 3.766L9.13162 15.6326L8.51583 17.125C8.45403 17.2868 8.45378 17.4704 8.51544 17.6327C8.57729 17.7955 8.69124 17.9121 8.81865 17.9708C8.81896 17.971 8.81927 17.9711 8.81958 17.9712L14.5208 20.5621C14.5215 20.5624 14.5222 20.5627 14.5229 20.563C14.6484 20.6181 14.7864 20.6185 14.9121 20.5642C15.04 20.5089 15.1559 20.3957 15.221 20.2351C15.2212 20.2347 15.2213 20.2344 15.2214 20.234L20.5608 6.83756C20.6183 6.68193 20.6194 6.50678 20.5634 6.34996C20.5098 6.19984 20.4117 6.08668 20.2983 6.021L19.7344 5.77336C19.6786 5.85459 19.6182 5.93277 19.5535 6.00745C19.3217 6.27513 19.0388 6.49271 18.7205 6.64449C18.4019 6.79635 18.0559 6.87852 17.7036 6.88443C17.3513 6.89033 17.0027 6.81981 16.6794 6.67852C16.3563 6.5373 16.0667 6.32899 15.8267 6.06878C15.5868 5.80867 15.4012 5.50187 15.2789 5.16805C15.1566 4.83429 15.0995 4.47888 15.1103 4.12291C15.1142 3.99234 15.1273 3.86241 15.1492 3.73417L14.5472 3.43295ZM8.79902 5.14308C9.1635 5.04496 9.38497 4.67329 9.29523 4.3045C9.20412 3.93011 8.82676 3.70047 8.45237 3.79158L7.89704 3.92672C7.52904 4.01628 7.2997 4.38309 7.38034 4.75316C7.41192 4.89811 7.41591 5.04863 7.39194 5.19549C7.36798 5.34233 7.31681 5.48104 7.2428 5.60367C7.16884 5.72624 7.07404 5.82956 6.96554 5.90915C6.85756 5.98835 6.73785 6.04277 6.61367 6.07109C6.35849 6.12728 6.09001 6.07715 5.86321 5.92434C5.63445 5.77021 5.46273 5.52049 5.39742 5.22153C5.31531 4.84563 4.94438 4.60717 4.56831 4.68852L3.45766 4.92877L3.44873 4.93077C3.19975 4.98806 2.96657 5.0975 2.76287 5.25052C2.55927 5.40346 2.38965 5.59645 2.26249 5.81628C2.13537 6.03604 2.0528 6.2789 2.01834 6.53012C1.9847 6.77548 1.9974 7.02543 2.05592 7.26604L2.14264 7.68869C2.2001 7.96818 2.28294 8.37018 2.38447 8.86044C2.58751 9.8409 2.8654 11.1747 3.16471 12.5875C3.24456 12.9644 3.61488 13.2053 3.99183 13.1254C4.36878 13.0456 4.60962 12.6753 4.52976 12.2983C4.23102 10.8882 3.95359 9.55659 3.75082 8.57748C3.64944 8.08796 3.56675 7.68661 3.5094 7.40769L3.42021 6.97297C3.41807 6.96251 3.4156 6.95165 3.41299 6.9413C3.39483 6.86947 3.39058 6.79391 3.40075 6.71971C3.41093 6.64552 3.43507 6.57588 3.47032 6.51495C3.50553 6.45408 3.55056 6.404 3.60091 6.36618C3.65014 6.32919 3.70376 6.3044 3.75825 6.29138L4.27572 6.17944C4.46643 6.53939 4.7415 6.85109 5.08355 7.08155C5.62314 7.44509 6.28249 7.57383 6.91735 7.433L6.9203 7.43234C7.23474 7.36115 7.53053 7.22521 7.79085 7.03425C8.05106 6.84337 8.27031 6.60163 8.43748 6.3246C8.60462 6.04764 8.71686 5.74018 8.76907 5.42024C8.78407 5.32833 8.79405 5.2358 8.79902 5.14308Z" fill="black"/>
</svg>
