<svg width="24" height="24" viewBox="0 0 24 24" fill="none" xmlns="http://www.w3.org/2000/svg">
<path fill-rule="evenodd" clip-rule="evenodd" d="M6.08193 6.35484C5.4871 6.35484 4.93038 6.63911 4.59328 7.11497L3.7135 8.3569C3.50629 8.64941 3.39535 8.99609 3.39535 9.35111V14.2692C3.39535 14.5221 3.60645 14.727 3.86686 14.727C4.05748 14.727 4.31967 14.5801 4.58171 14.2175C4.71509 14.0201 4.87131 13.8382 5.04663 13.675C5.64077 13.1209 6.4552 12.7816 7.34884 12.7816C8.71625 12.7816 9.90363 13.5778 10.3929 14.727H12.5727C13.0616 13.5788 14.252 12.7816 15.6176 12.7816C16.985 12.7816 18.1724 13.5778 18.6616 14.727H19.5621C20.1379 14.727 20.6047 14.2739 20.6047 13.7148V12.5466C20.6047 11.7064 19.9912 10.9842 19.1417 10.8243L16.0674 10.2457H13.4709C11.7024 10.2457 10.2687 8.85363 10.2687 7.13648V6.35484H6.08193ZM11.6641 6.35484V7.13648C11.6641 8.10537 12.473 8.89082 13.4709 8.89082H14.9894L14.1468 7.30488C13.8368 6.72141 13.2172 6.35484 12.5411 6.35484H11.6641ZM16.5993 8.96572L15.3869 6.68374C14.8375 5.64967 13.7394 5 12.5411 5H6.08193C5.02772 5 4.04106 5.50381 3.44363 6.34717L2.56385 7.5891C2.19661 8.10751 2 8.72191 2 9.35111V14.2692C2 15.2703 2.83582 16.0819 3.86686 16.0819C3.93705 16.0819 4.00561 16.0781 4.07255 16.0708C4.17127 17.7216 5.6195 19 7.34884 19C9.0743 19 10.5199 17.7273 10.6244 16.0819H12.342C12.4465 17.7273 13.8921 19 15.6176 19C17.343 19 18.7887 17.7273 18.8932 16.0819H19.5621C20.9085 16.0819 22 15.0221 22 13.7148V12.5466C22 11.0576 20.9127 9.77759 19.4072 9.49422L16.5993 8.96572ZM17.4664 15.5407C17.2953 14.7534 16.5446 14.1365 15.6176 14.1365C14.5551 14.1365 13.7313 14.9417 13.7313 15.8908C13.7313 16.8399 14.5551 17.6452 15.6176 17.6452C16.6801 17.6452 17.5039 16.8399 17.5039 15.8908C17.5039 15.7703 17.4909 15.6533 17.4664 15.5407ZM9.19769 15.5407C9.22218 15.6533 9.23514 15.7703 9.23514 15.8908C9.23514 16.8399 8.41133 17.6452 7.34884 17.6452C6.28635 17.6452 5.46253 16.8399 5.46253 15.8908C5.46253 15.4127 5.67158 14.9711 6.01487 14.6506C6.35449 14.3346 6.8246 14.1365 7.34884 14.1365C8.27562 14.1365 9.0263 14.7537 9.19769 15.5407Z" fill="black"/>
</svg>
