<svg width="24" height="24" viewBox="0 0 24 24" fill="none" xmlns="http://www.w3.org/2000/svg">
<path fill-rule="evenodd" clip-rule="evenodd" d="M16.9951 2.83045C17.5269 2.29872 18.248 2 19 2H19.4914C20.1567 2 20.7948 2.2643 21.2653 2.73475C21.7357 3.2052 22 3.84327 22 4.50858V4.99999C22 5.75197 21.7013 6.47315 21.1695 7.00488L17.8681 10.3063L21.6446 17.8592C21.919 18.4081 21.919 19.0542 21.6446 19.6031C21.0494 20.7933 19.4631 21.0508 18.5221 20.1098L13.2934 14.881L10.6381 17.5363C10.3772 17.7972 10.2307 18.151 10.2307 18.5199V18.9662C10.2307 19.7362 9.79563 20.4402 9.1069 20.7845C8.00035 21.3378 6.66032 20.7827 6.2691 19.6091L6.01534 18.8478C5.8795 18.4403 5.55972 18.1205 5.1522 17.9847L4.39092 17.7309C3.21725 17.3397 2.6622 15.9996 3.21547 14.8931C3.55983 14.2044 4.26377 13.7693 5.0338 13.7693H5.48011C5.84901 13.7693 6.20281 13.6228 6.46366 13.3619L9.11896 10.7066L3.89023 5.47789C2.94925 4.53691 3.20667 2.95058 4.39694 2.35545C4.94582 2.08101 5.59188 2.08101 6.14077 2.35545L13.6937 6.1319L16.9951 2.83045ZM19 3.36417C18.6098 3.36417 18.2356 3.51917 17.9597 3.79506L14.3107 7.44414C14.1031 7.65174 13.7859 7.70321 13.5233 7.57191L5.53069 3.5756C5.36586 3.49318 5.17184 3.49318 5.00701 3.5756C4.64957 3.75432 4.57227 4.2307 4.85485 4.51328L10.5659 10.2243C10.8322 10.4907 10.8322 10.9226 10.5659 11.1889L7.42827 14.3265C6.91159 14.8432 6.21082 15.1335 5.48011 15.1335H5.0338C4.78048 15.1335 4.54891 15.2766 4.43562 15.5032C4.25361 15.8672 4.43621 16.308 4.82231 16.4367L5.58358 16.6905C6.39845 16.9621 7.03788 17.6015 7.30951 18.4164L7.56326 19.1777C7.69197 19.5638 8.1328 19.7464 8.49682 19.5644C8.7234 19.4511 8.86652 19.2195 8.86652 18.9662V18.5199C8.86652 17.7892 9.15679 17.0884 9.67347 16.5717L12.8111 13.4341C12.939 13.3062 13.1125 13.2343 13.2934 13.2343C13.4743 13.2343 13.6478 13.3062 13.7757 13.4341L19.4867 19.1452C19.7693 19.4277 20.2457 19.3504 20.4244 18.993C20.5068 18.8282 20.5068 18.6341 20.4244 18.4693L16.4281 10.4767C16.2968 10.2141 16.3483 9.89694 16.5559 9.68934L20.2049 6.04026C20.4808 5.76437 20.6358 5.39017 20.6358 4.99999V4.50858C20.6358 4.20507 20.5153 3.91398 20.3006 3.69936C20.086 3.48474 19.7949 3.36417 19.4914 3.36417H19Z" fill="black"/>
</svg>
