<svg width="24" height="24" viewBox="0 0 24 24" fill="none" xmlns="http://www.w3.org/2000/svg">
<path fill-rule="evenodd" clip-rule="evenodd" d="M12 3.39535C10.0689 3.39535 8.52984 4.94871 8.52984 6.83204C8.52984 8.71537 10.0689 10.2687 12 10.2687C13.9311 10.2687 15.4702 8.71537 15.4702 6.83204C15.4702 4.94871 13.9311 3.39535 12 3.39535ZM7.15841 6.83204C7.15841 4.14868 9.34068 2 12 2C14.6593 2 16.8416 4.14868 16.8416 6.83204C16.8416 9.51541 14.6593 11.6641 12 11.6641C9.34068 11.6641 7.15841 9.51541 7.15841 6.83204ZM4.79854 15.205C5.70321 14.1083 7.26085 13.3695 8.8831 13.3695H15.1169C16.7391 13.3695 18.2968 14.1083 19.2015 15.205C19.6587 15.7594 19.9709 16.4339 19.9981 17.1713C20.0257 17.9212 19.7552 18.6606 19.1788 19.3166C17.7311 20.9642 15.3985 22 12 22C8.60149 22 6.2689 20.9642 4.8212 19.3166C4.24478 18.6606 3.97431 17.9212 4.00192 17.1713C4.02907 16.4339 4.34129 15.7594 4.79854 15.205ZM5.37238 17.2236C5.35955 17.5722 5.47592 17.9681 5.84361 18.3866C6.96403 19.6617 8.87837 20.6047 12 20.6047C15.1216 20.6047 17.036 19.6617 18.1564 18.3866C18.5241 17.9681 18.6405 17.5722 18.6276 17.2236C18.6143 16.8625 18.4588 16.4752 18.151 16.1021C17.5255 15.3438 16.3637 14.7649 15.1169 14.7649H8.8831C7.63631 14.7649 6.4745 15.3438 5.84902 16.1021C5.5412 16.4752 5.38568 16.8625 5.37238 17.2236Z" fill="black"/>
</svg>
