<svg width="167" height="74" viewBox="0 0 167 74" fill="none" xmlns="http://www.w3.org/2000/svg">
<path d="M76.8885 43.8183V32.4463L112.659 13.4931V24.8651L87.9523 37.8027V38.4619L112.659 51.3996V62.7715L76.8885 43.8183Z" fill="#DCFF00"/>
<path d="M0 74L26.7029 0H37.7667L11.0638 74H0Z" fill="#DCFF00"/>
<path d="M28.8455 51.2572L58.662 38.4619V37.8027L28.8455 24.7227V13.3508L69.7258 32.4464V43.8183L28.8455 62.6292V51.2572Z" fill="#DCFF00"/>
<path d="M117.96 59.7185H121.091V62.8902H117.96V59.7185Z" fill="#DCFF00"/>
<path d="M126.154 41.5026H129.089V50.3196H140.803V41.5026H143.753V62.8902H140.803V52.8221H129.089V62.8902H126.154V41.5026Z" fill="#DCFF00"/>
<path d="M155.392 50.6105H163.869C163.879 49.7085 163.75 48.8307 163.48 47.9771C163.21 47.1138 162.786 46.3476 162.207 45.6783C161.638 45.009 160.904 44.4755 160.005 44.0779C159.116 43.6705 158.053 43.4668 156.815 43.4668C156.066 43.4668 155.347 43.5492 154.658 43.7141C153.969 43.879 153.35 44.1409 152.8 44.4998C152.261 44.8587 151.812 45.3146 151.452 45.8674C151.093 46.4203 150.863 47.0799 150.763 47.8462H147.887C147.887 47.3224 147.967 46.7889 148.127 46.2457C148.297 45.7025 148.546 45.1788 148.876 44.6744C149.215 44.1603 149.635 43.6802 150.134 43.234C150.643 42.7781 151.233 42.3853 151.902 42.0555C152.571 41.716 153.32 41.4493 154.148 41.2553C154.987 41.0613 155.906 40.9643 156.904 40.9643C157.783 40.9643 158.642 41.0516 159.481 41.2262C160.33 41.3911 161.128 41.6627 161.877 42.0409C162.626 42.4095 163.315 42.8848 163.944 43.4668C164.573 44.0488 165.113 44.752 165.562 45.5764C166.011 46.3912 166.361 47.3369 166.611 48.4136C166.87 49.4902 167 50.7027 167 52.0509C167 53.5447 166.84 54.8687 166.521 56.0229C166.201 57.1675 165.772 58.1617 165.233 59.0056C164.703 59.8397 164.089 60.5429 163.39 61.1152C162.691 61.6778 161.957 62.1337 161.188 62.4829C160.429 62.8223 159.656 63.0648 158.867 63.2103C158.088 63.3558 157.354 63.4286 156.665 63.4286C155.247 63.4286 153.974 63.2006 152.845 62.7447C151.727 62.2889 150.778 61.6826 149.999 60.9261C149.22 60.1695 148.616 59.3014 148.187 58.3217C147.768 57.3324 147.553 56.3042 147.543 55.2373H150.404C150.404 56.0035 150.559 56.731 150.868 57.4197C151.188 58.1083 151.632 58.7146 152.201 59.2383C152.77 59.7524 153.444 60.1647 154.223 60.475C155.012 60.7757 155.876 60.9261 156.815 60.9261C157.304 60.9261 157.818 60.8727 158.357 60.766C158.897 60.6593 159.426 60.4847 159.945 60.2422C160.464 59.9901 160.959 59.6651 161.428 59.2674C161.907 58.8698 162.327 58.3848 162.686 57.8125C163.046 57.2305 163.33 56.5516 163.54 55.7756C163.75 54.9996 163.859 54.1121 163.869 53.113H155.392V50.6105Z" fill="#DCFF00"/>
</svg>
